<?xml version="1.0" encoding="UTF-8"?>
<svg width="171px" height="171px" viewBox="0 0 171 171" version="1.1" xmlns="http://www.w3.org/2000/svg" xmlns:xlink="http://www.w3.org/1999/xlink">
    <!-- Generator: Sketch 52.3 (67297) - http://www.bohemiancoding.com/sketch -->
    <title>curiousjr-logo</title>
    <desc>Created with Sketch.</desc>
    <g id="Page-1" stroke="none" stroke-width="1" fill="none" fill-rule="evenodd">
        <g id="curiousjr-logo">
            <circle id="Oval" fill="#20242A" cx="85.701" cy="85.296" r="85.023"></circle>
            <path d="M82.1085,124.352 L82.1085,101.886 L81.3507,101.703 C79.1259,101.132 76.9788,100.293 74.9568,99.203 L74.9568,129.091 C77.1954,127.933 79.6132,127.161 82.1085,126.808 L82.1085,124.352 Z" id="Path" fill="#FF7739"></path>
            <path d="M95.645,23.7911 C93.276,23.4552 90.886,23.2864 88.494,23.2858 L88.424,23.2946 C76.212,23.2951 64.4098,27.6999 55.1835,35.7005 C45.9573,43.7011 39.9259,54.7607 38.1963,66.8496 L53.2663,66.8496 C54.56,60.498 57.5505,54.6155 61.92,49.8276 C66.2896,45.0396 71.8748,41.5251 78.0821,39.6577 C84.2893,37.7902 90.887,37.6396 97.173,39.2218 C103.459,40.804 109.198,44.0599 113.782,48.6434 C118.365,53.2269 121.621,58.9668 123.204,65.2528 C124.786,71.5388 124.635,78.136 122.768,84.3433 C120.9,90.551 117.386,96.136 112.598,100.505 C107.81,104.875 101.927,107.865 95.576,109.159 L95.576,117.94 L95.576,126.72 L95.576,128.65 C93.33,127.499 90.91,126.729 88.415,126.371 L88.415,125.91 L88.415,101.702 L91.9,101.702 L92.013,101.702 L92.126,101.702 L92.239,101.702 L92.353,101.702 L92.466,101.702 L92.579,101.702 L92.692,101.702 L92.806,101.702 L92.919,101.702 L93.032,101.702 L93.145,101.702 L93.259,101.702 L93.372,101.702 L93.485,101.702 L93.598,101.702 L93.712,101.702 L93.825,101.702 L93.938,101.702 L94.051,101.702 L94.165,101.702 L94.278,101.702 L94.391,101.702 L94.504,101.702 L94.617,101.702 L94.731,101.702 L94.844,101.702 L94.957,101.702 L95.07,101.702 L95.184,101.702 L95.288,101.702 L95.401,101.702 L95.515,101.702 L95.628,101.702 C100.804,100.368 105.503,97.609 109.19,93.738 C112.877,89.867 115.404,85.039 116.484,79.8039 C117.565,74.5685 117.156,69.135 115.303,64.1206 C113.45,59.1062 110.228,54.7119 106.003,51.4369 C101.778,48.1619 96.719,46.1376 91.401,45.5937 C86.083,45.0499 80.7193,46.0085 75.9187,48.3605 C71.1182,50.7125 67.0735,54.3637 64.2442,58.8993 C61.4148,63.4349 59.9142,68.6731 59.9128,74.0188 L30.426,74.0188 C30.4237,66.3926 31.9241,58.8407 34.8415,51.7946 C37.7589,44.7485 42.036,38.3462 47.4285,32.9537 C52.8211,27.5612 59.2233,23.284 66.2694,20.3666 C73.3155,17.4493 80.8675,15.9489 88.494,15.9512 C90.884,15.9503 93.273,16.0958 95.645,16.3867 L95.645,23.7911 Z" id="Path" fill="#FFFFFF"></path>
            <path d="M85.287,134.982 C88.066,134.982 90.782,135.806 93.093,137.35 C95.404,138.894 97.205,141.089 98.268,143.656 C99.331,146.224 99.61,149.049 99.068,151.774 C98.525,154.5 97.187,157.004 95.222,158.969 C93.257,160.934 90.753,162.272 88.028,162.814 C85.302,163.356 82.4771,163.078 79.9097,162.015 C77.3422,160.951 75.1478,159.15 73.6038,156.84 C72.0599,154.529 71.2358,151.812 71.2358,149.033 C71.2358,145.307 72.7162,141.733 75.3512,139.098 C77.9863,136.463 81.5602,134.982 85.287,134.982 Z" id="Path" fill="#FF7739"></path>
        </g>
    </g>
</svg>